<svg viewBox="0 0 256 256" width="256px" height="256px" fill="none" xmlns="http://www.w3.org/2000/svg">
  <rect width="256" height="256" fill="#242938" rx="60"/>
  <path fill="#81CD39" d="M141.372 89.3351C152.117 88.6433 163.62 88.9255 173.289 94.2185C180.776 98.2754 184.926 106.789 185.058 115.106C184.849 116.227 183.676 116.846 182.605 116.769C179.488 116.765 176.369 116.812 173.252 116.748C171.929 116.799 171.161 115.58 170.995 114.411C170.099 110.431 167.928 106.49 164.183 104.57C158.433 101.692 151.767 101.837 145.497 101.897C140.92 102.139 135.998 102.536 132.12 105.227C129.143 107.266 128.239 111.382 129.301 114.697C130.303 117.077 133.05 117.845 135.299 118.553C148.248 121.94 161.97 121.602 174.672 126.059C179.931 127.876 185.075 131.409 186.875 136.915C189.23 144.295 188.198 153.115 182.947 159.039C178.689 163.914 172.488 166.568 166.303 168.009C158.075 169.844 149.536 169.891 141.18 169.076C133.323 168.18 125.146 166.116 119.081 160.763C113.894 156.259 111.361 149.241 111.612 142.469C111.672 141.325 112.811 140.527 113.907 140.621C117.046 140.596 120.186 140.587 123.325 140.626C124.58 140.536 125.509 141.62 125.574 142.802C126.152 146.593 127.577 150.573 130.884 152.82C137.264 156.937 145.271 156.655 152.577 156.77C158.63 156.502 165.425 156.421 170.364 152.42C172.97 150.138 173.742 146.32 173.038 143.036C172.275 140.263 169.374 138.971 166.883 138.126C154.1 134.083 140.224 135.55 127.565 130.977C122.425 129.161 117.455 125.727 115.481 120.447C112.726 112.974 113.988 103.73 119.789 98.0061C125.445 92.312 133.609 90.1192 141.372 89.3346V89.3351"/>
  <g id="Layer_2" transform="matrix(1.5945020914077759, 0, 0, 1.5945020914077759, 25.96288871765137, 26.860347747802738)" style="">
    <linearGradient id="SVGID_1_" gradientUnits="userSpaceOnUse" x1="64" y1="128" x2="64" y2="1.434923e-06">
      <stop offset="0" style="stop-color:#1D4A79"/>
      <stop offset="1" style="stop-color:#45CAF2"/>
    </linearGradient>
    <polygon style="fill:url(#SVGID_1_);" points="64,0 8.8,32 8.8,96 64,128 64,128 64,128 119.2,96 119.2,32 &#9;"/>
    <g style="opacity:0.7;">
      <polygon style="fill:#156AB3;stroke:#0078D4;stroke-width:0.5;stroke-linejoin:round;stroke-miterlimit:10;" points="118.8,32.3 &#10;&#9;&#9;&#9;118.8,95.8 64,127.5 64,64 &#9;&#9;"/>
      <polygon style="fill:#1D4A79;stroke:#0078D4;stroke-width:0.5;stroke-linejoin:round;stroke-miterlimit:10;" points="118.8,32.3 &#10;&#9;&#9;&#9;64,64 9.2,32.3 64,0.5 &#9;&#9;"/>
      <polygon style="fill:#185A97;stroke:#0078D4;stroke-width:0.5;stroke-linejoin:round;stroke-miterlimit:10;" points="64,64 &#10;&#9;&#9;&#9;64,127.5 9.2,95.8 9.2,32.3 &#9;&#9;"/>
      <polygon style="fill:#1D4A79;stroke:#0078D4;stroke-width:0.5;stroke-linejoin:round;stroke-miterlimit:10;" points="9.2,95.8 &#10;&#9;&#9;&#9;64,64 64,127.5 &#9;&#9;"/>
      <polygon style="fill:#185A97;stroke:#0078D4;stroke-width:0.5;stroke-linejoin:round;stroke-miterlimit:10;" points="118.8,95.8 &#10;&#9;&#9;&#9;64,64 64,127.5 &#9;&#9;"/>
    </g>
  </g>
  <g id="Layer_3" transform="matrix(1.5945020914077759, 0, 0, 1.5945020914077759, 25.96288871765137, 26.860347747802738)" style="">
    <path style="fill:#1D4A79;" d="M87.5,66.1C87,66,86.5,66,86,66v0H54.9L64,43.1c0.1,0,0.6,0.2,1,0.2c0.2,0,0.4,0,0.6-0.1l9.6-3.1 c0.3-0.1,0.6-0.3,0.9-0.6l6.3-7l-0.2-2.8l-1.5-1.3l-7.3,8.1l-8,2.6l-5.8-5.2l1.7-8.2l7.3-8.1l-1.5-1.4l-2.8,0.2l-6.3,7 c-0.2,0.3-0.4,0.6-0.5,0.9l-2.1,9.8c-0.1,0.7,0.1,1.4,0.6,1.9c0,0-1,0.3-1.2,0.6L30.1,68.5c-3.3,2.3-5.7,6-6,10.3 c-0.3,3.7,0.9,7.3,3.3,10.2c2.3,2.7,5.4,4.3,8.9,4.8l0,0l47,7.9l0-0.1c0.5,0.1,0.9,0.2,1.4,0.3c0.5,0,1,0.1,1.5,0.1 c9.3,0,17.1-7.1,17.9-16.5C104.8,75.6,97.4,66.9,87.5,66.1z"/>
    <g>
      <path style="opacity:0.3;fill:#FFFFFF;" d="M38,92.8c0,0-12.1-3.4-12.1-14.2c0-9.2,12.5-11.3,12.5-11.3L86.9,68 c0,0,15.5,1.8,15.5,16c0,14-15.5,15.9-15.5,15.9L38,92.8z"/>
      <circle style="opacity:0.3;fill:#FFFFFF;" cx="38" cy="80" r="12"/>
      <polygon style="opacity:0.2;fill:#FFFFFF;" points="58.8,34.9 64.4,38.5 52.6,68.4 33.9,68 &#9;&#9;"/>
      <path style="opacity:0.3;fill:#FFFFFF;" d="M82,92H90c0.4,0,0.7-0.2,0.9-0.5l4-7c0.2-0.3,0.2-0.7,0-1l-4-7 C90.7,76.2,90.4,76,90,76H82c-0.4,0-0.7,0.2-0.9,0.5l-4,7c-0.2,0.3-0.2,0.7,0,1l4,7C81.3,91.8,81.6,92,82,92z"/>
    </g>
  </g>
  <g id="Layer_1" transform="matrix(1.5945020914077759, 0, 0, 1.5945020914077759, 25.96288871765137, 26.860347747802738)" style="">
    <circle style="fill:none;stroke:#FFFFFF;stroke-width:4;stroke-linejoin:round;stroke-miterlimit:10;" cx="38" cy="80" r="12"/>
    <g>
      <path style="fill:#FFFFFF;" d="M36,84h4c0.2,0,0.3-0.1,0.4-0.3l2-3.5c0.1-0.2,0.1-0.3,0-0.5l-2-3.5C40.4,76.1,40.2,76,40,76h-4 c-0.2,0-0.3,0.1-0.4,0.3l-2,3.5c-0.1,0.2-0.1,0.3,0,0.5l2,3.5C35.6,83.9,35.8,84,36,84z"/>
    </g>
    <g>
      <path style="fill:#FFFFFF;" d="M86,66v4c0.4,0,0.8,0,1.2,0c3.7,0.3,7.1,2,9.5,4.9c2.4,2.9,3.6,6.5,3.3,10.2 C99.4,92.4,93.2,98,86,98c-0.4,0-0.8,0-1.2,0c-3.7-0.3-7.1-2-9.5-4.9c-2.4-2.9-3.6-6.5-3.3-10.2C72.6,75.6,78.8,70,86,70L86,66 M86,66c-9.3,0-17.1,7.1-17.9,16.5c-0.8,9.9,6.6,18.6,16.5,19.4c0.5,0,1,0.1,1.5,0.1c9.3,0,17.1-7.1,17.9-16.5 c0.8-9.9-6.6-18.6-16.5-19.4C87,66,86.5,66,86,66L86,66z"/>
    </g>
    <g>
      <path style="fill:#FFFFFF;" d="M89.5,78l3.5,6l-3.5,6h-6.9l-3.5-6l3.5-6H89.5 M90,76H82c-0.4,0-0.7,0.2-0.9,0.5l-4,7 c-0.2,0.3-0.2,0.7,0,1l4,7c0.2,0.3,0.5,0.5,0.9,0.5H90c0.4,0,0.7-0.2,0.9-0.5l4-7c0.2-0.3,0.2-0.7,0-1l-4-7 C90.7,76.2,90.4,76,90,76L90,76z"/>
    </g>
    <line style="fill:none;stroke:#FFFFFF;stroke-width:4;stroke-miterlimit:10;" x1="36.5" y1="91.9" x2="83.5" y2="99.8"/>
    <g>
      <line style="fill:none;stroke:#FFFFFF;stroke-width:4;stroke-miterlimit:10;" x1="86" y1="68" x2="38" y2="68"/>
    </g>
    <path style="fill-rule:evenodd;clip-rule:evenodd;fill:none;stroke:#FFFFFF;stroke-width:4;stroke-linejoin:round;stroke-miterlimit:10;" d=" M31.6,69.8l24.9-31.9c1-1.2,2.8-1.4,4-0.4l1.2,1.1c0.9,0.7,1.1,1.9,0.7,3L52,68"/>
    <path style="fill:#FFFFFF;stroke:#FFFFFF;stroke-miterlimit:10;" d="M82.5,29.5L81,28.1l-7.3,8.1l-8,2.6L60,33.6l1.7-8.2l7.3-8.1 L67.4,16l-2.8,0.2l-6.3,7c-0.2,0.3-0.4,0.6-0.5,0.9l-2.1,9.8c-0.1,0.7,0.1,1.4,0.6,1.9l7.5,6.7c0.4,0.3,0.8,0.5,1.3,0.5 c0.2,0,0.4,0,0.6-0.1l9.6-3.1c0.3-0.1,0.6-0.3,0.9-0.6l6.3-7L82.5,29.5z"/>
  </g>
</svg>