<svg version="1.1" xmlns="http://www.w3.org/2000/svg" viewBox="0 0 800 800" width="2400" height="2400">
  <!-- svg-source:excalidraw -->
  <!-- payload-type:application/vnd.excalidraw+json --><!-- payload-version:2 --><!-- payload-start -->eyJ2ZXJzaW9uIjoiMSIsImVuY29kaW5nIjoiYnN0cmluZyIsImNvbXByZXNzZWQiOnRydWUsImVuY29kZWQiOiJ4nO2cXVNcdTAwMWK5XHUwMDEyhu/zKyjO7XpWanVLrb3DXHUwMDEwXHUwMDAyXHRgvlxmhFNbKYNcdTAwMDfbeLDBNiGQyn/flmE93vnI8cVcdFx1MDAxYjtcdTAwMWWqKNB8Wnrn0ds9Pf76ZmVldfR4XHUwMDFir/6xslx1MDAxYX+5bCSd5qDxsPpbaP9cdTAwMWNcdTAwMGaGnX5PVsH4/2H/fnA53rI9XHUwMDFh3Vx1MDAwZf/4/fd0j+iyf/O8V5zEN3FvNJTt/iv/r6x8XHUwMDFk/5Y1nWbY99OH80+faqeVZPPk7OD+XHUwMDFkfV67ebLjXcdcdTAwMWJNLiZJOrfDOF3xRVorWlx1MDAxYlx1MDAxZnkmQFx1MDAwM1x1MDAwZVx1MDAxMIyZrH+U9VpcdTAwMTlcdTAwMTWhXHUwMDA3p41cdTAwMDZicnay+qHTXHUwMDFjtWVcdTAwMTPHatLWjjut9ijT2Oi1knBcdTAwMDVpy3A06Hfj9X7SXHUwMDFmhCv7j1x1MDAxYS/plV00LrutQf++10y3uVx1MDAxYS/pNledJDlcdTAwMWE9jo8sXHUwMDFkKZ22mjn+6ctcdTAwMDVipr1sLzlhq92Lh8O/x2fc2r9tXFx2Rs99kX6CcHW32810TJ67eoinm+1cdTAwMGVWz/jkYfN83zR2z93qy/o/00tcdTAwMWY0buLtMHa9+ySZPn+v+XL+r1NcdTAwMDd9XHUwMDFlP3hp+ZZ+mjhcdTAwMGXHXHUwMDAwhU5cdTAwMDaQMFx1MDAxZLlUZ6h9tnWv31x1MDAxYmtORtQpXHUwMDE5X60nW3SGXHUwMDFiXCK20fiwV41kXHUwMDE4pyNcdTAwMTKu7W0qxH9cXPj9bbPxvJO27Lz8XHUwMDE4XHUwMDA3kF5O0ul1s/sk/ctuep43U58so+7h+oBcdTAwMDeE563jylq1a+KbQTJQeXXLObLSdtZF7Fx00ThlSSn/T2VrNFx1MDAxMSqvpftcdTAwMTiso5ywXHUwMDE5I0XegjPGXHUwMDExKIJcdTAwMDKZY1x1MDAwNFx1MDAxYVlZrVx1MDAxZGvF+jVF325cXLbvXHUwMDA38S8qe1xyXHUwMDAwiIxQJHtjsFT2iFx1MDAxNrxcIuP+fdlPmm/7nWnAhyX9ayVcdTAwMTXR+J/J33/+Vrh1qW7DklNserTcgCWN4Wi9f3PTXHUwMDE5ycfcXHUwMDBml5j9OMNRYzCqdnrNTq+VXVx1MDAxN/eaJWvGe61cclx1MDAwNv2HdtzI6UH2y677XHUwMDBlXHUwMDFlXHUwMDFlj0/WXHUwMDFh71x1MDAxZc7MdWM4qN1cXG9vboo8Z8GDZVx1MDAxYrFF70FcdTAwMDOz16n2x6pcdTAwMDftXCJcdTAwMGJG+OCVQs7Pe9rZXGLRI7PSQmDSnOeDXHUwMDExXHUwMDA0XHUwMDAxO7IqnMHaV+XDrzwpXHUwMDA2ZVx1MDAwM1x1MDAxOZrCekpcdTAwMDeZ9MonRUTybH2634LRoVKu27DkXHUwMDE0O+d8SODx/vNF593+kVx1MDAxYiXVXHUwMDBm8fZJRTVmtFx1MDAwZlx1MDAxNFx1MDAwMEBWM1uyLmdcdTAwMWakXHUwMDFiXHJcdTAwMDMrwrEzzvtcdTAwMDdcdTAwMWJcdTAwMTmjSSxcdTAwMDY5XHUwMDE0LaaSSv2DmGtgYyxq51x1MDAwMV6XXHUwMDBmv7Z/8Fwib1wiXHUwMDAxfFx1MDAwMSBcXLl7cEJcdTAwMTWZL/AnMM0/iFx1MDAwZqWyXHJLTrBzjlx1MDAwN7N3pXZdXds27dVvK/tcdTAwMTcuSZoz4YFJulx1MDAwMsVcdTAwMTlcdTAwMThtUU1P7S/2wUZiXHUwMDFkXGZcdTAwMTglXHUwMDE2zKjUXHUwMDFj/I1cdTAwMDfAyHvl5Fx1MDAxZdZcdTAwMWXErfnUYkz4IFxujVx1MDAwMFx0JO6WQFx1MDAwNpRLb7AlIH40IKy4aCdBZFx1MDAwMSA8ZFx1MDAxYieAUFqGXHUwMDEyeepOXjBAlOs2LHnFzjkhWvtcdTAwMWbh6vKTbqn1o8O3Tz3/xSQ7M1x1MDAxYVxiXHUwMDE0XHUwMDA0sHeoXHUwMDAyXHUwMDFmIFx1MDAxNdJY9cZxpJ1cblx1MDAxMHXiU1U+XHUwMDAxYSFiXCLjndIsdkOlXHUwMDA3mFx1MDAwMEJFsi94Iz+iVVomIF4xxPBcdTAwMWVleInSPp9cdTAwMDKEyjZOXHUwMDAwoclYQqNcdTAwMTdcdTAwMTZcdTAwMTCVUt2O1+YkO+eAqKqt9lH14ovfu2/dXHUwMDFk+lx1MDAwYtqFaz2bhVx1MDAwMFxukZhcdTAwMTNcdTAwMGKByCqbejeOXCItXHUwMDEyI4Wa2Pi8hdA+suwtXHUwMDAyXHUwMDFh0aKH1MumXHUwMDBlgqNgQpBR5CrHselJloT40YRcdTAwMDAmtlx1MDAxNrAoxrDliXkrsbm1Yr1cdTAwMTeWXHUwMDEwpcJccktesnNOXGK5Jbqj4frdXHUwMDAxXHUwMDFkjE6vN+Ld41xyz7NcdTAwMTFcdTAwMDJcdTAwMDVcdTAwMDHSRUDEXGJcdTAwMDCpXCKeXHThMVLOmHEsXHUwMDBiwtq8hYhYOlx1MDAxMFx0xcrKVlRgIbSLJJhzVlktvtXqpYV4TVx1MDAwYlx1MDAwMeOHq0VcdTAwMTbC2mzj34BcdTAwMDBcdTAwMTJDSdoubFx1MDAwZaJUtWHJ6XXO6fBE9t3HXHUwMDEx0nqjdrSlP51yU7c+zEZcdTAwMDcjsZZcdTAwMTeDhUY6S2fsXHUwMDAzaoxcYsRVUNhGTEZcdTAwMGVcdTAwMGVkXCIl9kLsmGc5REF+0kSOLVpvvWdmmZaWbHgtNsiNXHUwMDE4ep6LXHUwMDFlb5bnJ2W8XHUwMDFkyEC5hWVDmWjDUsnpdc7ZcL+XmMbhTa1+hjvdrZ3mWXVwTbOxQVxclDUoQYRlmS4w41x1MDAxY2aAQ2T+XHUwMDA3XHUwMDFjMiNcdTAwMDFL4/BqcOBQ0mJcdTAwMDCLfIOGcuOgyFx1MDAxYk0yey4sXHUwMDFkSlQ7XpfV65zDYfvtp7Pta3ewPqyp+yHHd+cnXHUwMDA3MKNx0Fx1MDAxMSnWXHUwMDA2rdBcdTAwMTIwk5m0wWI50lqDYut1/tGmZlx1MDAxN3F4QizWXHUwMDE1xYBcdTAwMTSURlx1MDAxOcuySag1cXJcYtDLvMPrhVx1MDAxNY5YyVx1MDAwMFJR3kHGtFxmXHUwMDBmRqJusFx1MDAwYlxc+1Aq27BUcoqdcz6Yk/ZcdTAwMGWutbaqt+8r527/eNBtv6/NWlx1MDAxN+xcdTAwMWNH6EVDIVx1MDAxNaWZs9VRXG5cdTAwMDRcdTAwMTGsXGbIPeBN3j5oirwy2oEznozyXHUwMDA1/mGZmnxcdTAwMWWHf6c+ysnwiNqL6qNcXM5WTFxi4SXWdPxcdTAwMTNcdTAwMDDiO7rvfDw7VIe7Z7W9iztoXHUwMDFl1Tc22o9XM82LXHUwMDEyOEROeZlcdTAwMThFlVZNPbR/TreRj7xcdTAwMTf7JDOkXHUwMDA1tvmEvMyrLMZcZlx0pXvDcz3My1x1MDAxZUhOXHUwMDEygjuyXHUwMDA0XHUwMDE4qjSXsn812Vx1MDAxYmes874w4cblz+yM8UZcdTAwMDLLqWKhXHUwMDA1m1x1MDAxOcuFXHUwMDFilrxk53xqvO5w9/5sPzmt7jU3XHUwMDBlLo/j99c3x7MhwprIMMvYhcQkm0xcXG21iaxMmTKdic9QJp+Rl3lVhVx1MDAxYVx1MDAxMWItNsOnQz9cdTAwMDFcdTAwMDRTRFx1MDAwZUFcdTAwMTNoJy7OLpNur/cuTXAzyFQ4K35cdTAwMDdcdTAwMGYsuynghU26VcpUXHUwMDFilpxe51x1MDAxY1x1MDAwZU+1k15neH3Qv2tcdTAwMDNtfsDRTe1uMFvFT3hcXOesXHUwMDA1XCLl9PRjnWc4eFx1MDAxZoFcdTAwMThcdTAwMDeyblxcOJVjwyxcdTAwMTXDZfhYsuFHs1x1MDAwMVEmx8JcdTAwMTdcblxc+ftcdTAwMDSATlx1MDAxY+X0y3mLhobv1lx1MDAwYufAMeds2DJrW1f1dTzsbrVcdTAwMWZqqlup2WFrRjZwXHUwMDA0ilg6wzrFOlx1MDAxM1tYXHKCXHUwMDBlVGRcdTAwMDRcdTAwMTCMXHUwMDA1tT5cdTAwMTFpJHbBeZBE1K6oXFzY+shcdTAwMWHDoV5AgmpcdTAwMGLLcuHXw1x1MDAwMyiUXHUwMDFiQFx1MDAxN5VcdTAwMGJzXHUwMDBlXHUwMDFhaUZeMaKeXHUwMDA2+aLxoVxcuM+rc5qdc0Q8XsFDc/T2rH58WN853/78ltb05mxpeetcIlx1MDAxOTWZZoBcdTAwMTTYzPN8XHUwMDEy0GpcdTAwMDBcdTAwMDaN4izSO2OZk59cdTAwMDc8IChcdTAwMGKabdHjfO0425qGXHUwMDE2JKGk3EBcdTAwMGLLh18rJ3/hXHUwMDA3T1U42jg6/LDdrbhHfn+a1GcsXHUwMDE29qHuyTMoTeKzMnRcYolcdTAwMDdcdTAwMWaqXHUwMDAwjfShclDwvvKSXHUwMDBmPzFcdTAwMWZCtTeGgvmi+GL6W1ny3+JBXHUwMDE2/HTt91x1MDAxMlx1MDAxMM+Hm0tAvK/7d0/6/Ky2f3BQaZ9cdTAwMWbd7Vfrj/+fzCRE4EmmIVReorSiL/JZZiZ/Wj6AY3RcdTAwMGW4KLz4zuvKJryBgNNfeLBgdPilMpOuvrM7XHUwMDE4+Vb9YvNu52N3bVtcdTAwMWareDb3gCZySN4rXGY6wsyXXHUwMDE5XHUwMDE4z1x1MDAxMZBxSjrL2Om6suWLXHUwMDA080BcdTAwMDctMVx1MDAwMrIufFe5/Gm+XHUwMDEzT+nDd2MtKlx1MDAxY1x1MDAxNvU9gjcv17bauL09XHUwMDFhSddP1LL6uVx1MDAxMz9Uy2+eNy/iXHQ3TzxcdTAwMTbZtzff/lx1MDAwMpLJRf0ifQ==<!-- payload-end -->
  <defs>
    <style class="style-fonts">
      @font-face {
        font-family: "Virgil";
        src: url("https://excalidraw.com/Virgil.woff2");
      }
      @font-face {
        font-family: "Cascadia";
        src: url("https://excalidraw.com/Cascadia.woff2");
      }
    </style>
    
  </defs>
  <g stroke-linecap="round" transform="translate(10 10) rotate(0 390 390)"><path d="M596.67 56.87 C620.14 64.35, 637.13 87.46, 655.57 104.84 C674.01 122.21, 692.24 140.52, 707.3 161.13 C722.37 181.75, 735.31 205, 745.97 228.52 C756.64 252.03, 765.59 277.72, 771.29 302.23 C776.99 326.74, 779.33 350.71, 780.18 375.56 C781.03 400.41, 780.74 426.01, 776.39 451.35 C772.05 476.69, 762.93 503.33, 754.09 527.59 C745.26 551.84, 736.76 575.47, 723.39 596.91 C710.03 618.34, 691.76 638, 673.9 656.19 C656.04 674.38, 636.96 691.35, 616.21 706.06 C595.47 720.76, 572.37 733.77, 549.45 744.42 C526.52 755.08, 503.18 764.11, 478.67 770 C454.17 775.89, 427.84 778.69, 402.41 779.79 C376.98 780.88, 350.91 780.81, 326.08 776.56 C301.25 772.31, 277.11 763.45, 253.43 754.29 C229.76 745.14, 205.49 734.8, 184.03 721.63 C162.57 708.46, 142.87 692.32, 124.68 675.27 C106.49 658.22, 89.94 640.08, 74.88 619.33 C59.83 598.59, 45.42 574.22, 34.35 550.78 C23.27 527.35, 14.21 503.56, 8.44 478.73 C2.67 453.9, 0.21 427.01, -0.3 401.8 C-0.8 376.58, 1.17 352.2, 5.39 327.45 C9.6 302.7, 16.25 276.79, 24.99 253.29 C33.73 229.79, 44.22 207.86, 57.83 186.45 C71.44 165.04, 89.08 143.82, 106.64 124.84 C124.19 105.85, 142.97 87.82, 163.17 72.53 C183.36 57.24, 205.13 43.69, 227.83 33.1 C250.52 22.51, 274.25 14.7, 299.34 8.99 C324.43 3.29, 352.72 -0.47, 378.37 -1.12 C404.02 -1.77, 428.37 1.07, 453.23 5.09 C478.09 9.11, 497.95 9.45, 527.53 23.01 C557.11 36.56, 608.34 70.52, 630.7 86.44 C653.07 102.35, 665.59 113.55, 661.71 118.48 M359.58 4.01 C382.75 -5.13, 410.68 -2.59, 436.06 -0.12 C461.45 2.36, 488.08 11.09, 511.89 18.87 C535.69 26.64, 557.21 34.12, 578.89 46.52 C600.56 58.93, 622.22 76.23, 641.94 93.29 C661.67 110.36, 681.31 129.16, 697.24 148.9 C713.17 168.64, 726.01 189, 737.53 211.72 C749.05 234.45, 759.4 260.62, 766.35 285.25 C773.3 309.89, 777.3 334.14, 779.23 359.52 C781.16 384.91, 780.54 412.34, 777.93 437.55 C775.33 462.76, 771.1 487.11, 763.59 510.78 C756.07 534.46, 745.27 557.94, 732.86 579.59 C720.44 601.25, 705.82 621.36, 689.07 640.69 C672.32 660.03, 653.09 679.37, 632.36 695.6 C611.63 711.82, 587.08 726.91, 564.69 738.06 C542.3 749.2, 521.58 755.27, 498.01 762.48 C474.43 769.7, 449.18 778.51, 423.24 781.36 C397.3 784.21, 368.34 782.84, 342.39 779.61 C316.45 776.38, 291.46 770.01, 267.56 761.97 C243.66 753.93, 220.9 743.65, 199 731.34 C177.09 719.03, 155.03 704.59, 136.14 688.09 C117.25 671.6, 101.26 652.15, 85.67 632.36 C70.08 612.58, 54.16 592.49, 42.59 569.36 C31.03 546.23, 23.45 517.79, 16.29 493.58 C9.13 469.37, 2.16 448.57, -0.38 424.11 C-2.92 399.65, -2.31 372.9, 1.05 346.82 C4.41 320.74, 11.97 291.65, 19.77 267.63 C27.57 243.62, 35.58 224.7, 47.87 202.72 C60.17 180.75, 76.97 155.19, 93.52 135.77 C110.06 116.35, 127.61 101.75, 147.14 86.19 C166.66 70.63, 188.23 54.76, 210.66 42.4 C233.09 30.04, 257.01 18.56, 281.74 12.06 C306.47 5.56, 346.55 3.76, 359.02 3.38 C371.5 3, 355.71 3.59, 356.58 9.78" stroke="none" stroke-width="0" fill="#ffffff"></path><path d="M205.59 47.28 C223.93 30.42, 251.97 25.62, 275.83 18.21 C299.69 10.8, 323.53 5.49, 348.76 2.85 C373.98 0.21, 401.75 -0.13, 427.2 2.37 C452.64 4.87, 477.16 10.97, 501.44 17.85 C525.73 24.73, 550.51 32.14, 572.91 43.67 C595.31 55.19, 616.5 70.73, 635.84 86.99 C655.17 103.25, 672.72 121.46, 688.91 141.23 C705.09 160.99, 720.67 183.36, 732.94 205.57 C745.22 227.78, 754.75 250.54, 762.54 274.47 C770.33 298.41, 777.22 323.72, 779.69 349.19 C782.16 374.67, 779.79 401.81, 777.37 427.35 C774.96 452.89, 772.6 478.09, 765.17 502.43 C757.75 526.78, 745.06 551.11, 732.82 573.41 C720.57 595.71, 707.43 616.9, 691.71 636.23 C675.99 655.56, 657.7 673.18, 638.49 689.37 C619.29 705.57, 599.04 720.89, 576.5 733.4 C553.96 745.91, 528.01 757.05, 503.25 764.44 C478.49 771.83, 452.67 775.63, 427.94 777.73 C403.22 779.84, 380.05 779.65, 354.89 777.07 C329.73 774.49, 301.61 769.35, 276.98 762.28 C252.35 755.21, 229.33 746.3, 207.12 734.64 C184.9 722.99, 163.2 708.15, 143.68 692.34 C124.16 676.54, 105.97 659.35, 89.98 639.82 C73.99 620.29, 59.97 597.89, 47.73 575.18 C35.49 552.46, 23.93 528, 16.53 503.53 C9.13 479.05, 5.76 453.46, 3.35 428.33 C0.94 403.2, 0.12 377.64, 2.06 352.74 C4.01 327.84, 7.93 302.81, 15 278.92 C22.06 255.02, 32.57 232.14, 44.46 209.36 C56.36 186.59, 70.14 162.35, 86.37 142.25 C102.6 122.14, 117.57 106.46, 141.82 88.74 C166.07 71.01, 212.39 45.35, 231.88 35.92 C251.37 26.48, 256.37 26.65, 258.76 32.1 M283.02 13.2 C304.92 0.63, 334.35 4.76, 359.35 2.94 C384.35 1.12, 407.73 -0.18, 433 2.28 C458.26 4.73, 487.02 10.05, 510.94 17.68 C534.86 25.31, 555.05 35.48, 576.51 48.04 C597.98 60.6, 620.06 76.62, 639.71 93.02 C659.36 109.43, 677.92 126.84, 694.42 146.47 C710.91 166.11, 726.42 187.82, 738.66 210.82 C750.91 233.83, 761.48 259.91, 767.88 284.5 C774.28 309.09, 775.37 333.59, 777.07 358.38 C778.77 383.17, 780.97 407.94, 778.07 433.24 C775.16 458.55, 767.87 486.04, 759.66 510.2 C751.44 534.35, 740.61 556.48, 728.77 578.18 C716.92 599.87, 704.77 620.78, 688.59 640.36 C672.4 659.93, 652.09 679.85, 631.67 695.63 C611.25 711.41, 588.61 723.44, 566.05 735.03 C543.48 746.62, 520.7 757.57, 496.28 765.16 C471.87 772.75, 445.15 778.9, 419.55 780.58 C393.94 782.26, 367.23 778.2, 342.66 775.23 C318.09 772.25, 295.71 769.64, 272.14 762.73 C248.57 755.83, 223.93 746.18, 201.25 733.81 C178.56 721.45, 155.84 705.9, 136.03 688.55 C116.22 671.2, 98.04 649.3, 82.39 629.71 C66.74 610.12, 52.85 593.56, 42.11 571.02 C31.37 548.47, 24.35 518.87, 17.96 494.43 C11.58 469.99, 6.52 449.61, 3.8 424.36 C1.09 399.11, -0.68 368.63, 1.68 342.95 C4.03 317.26, 9.82 293.49, 17.95 270.25 C26.08 247.02, 38.34 225.67, 50.48 203.53 C62.62 181.39, 74.65 156.81, 90.78 137.43 C106.91 118.05, 127.16 102.96, 147.25 87.25 C167.35 71.55, 189.08 54.8, 211.36 43.2 C233.64 31.59, 268.93 21.4, 280.91 17.62 C292.88 13.85, 281.22 14.99, 283.19 20.52" stroke="#000000" stroke-width="4" fill="none"></path></g><g stroke-linecap="round"><g transform="translate(382.08979956592236 122.9163916568175) rotate(0 41.293372980016045 37.79824876656039)"><path d="M-0.63 2.46 C13.6 14.22, 69.08 60.29, 83.21 71.9 M4.23 1.33 C18.2 13.23, 67.48 62.14, 80.52 74.27" stroke="#000000" stroke-width="4" fill="none"></path></g></g><mask></mask><g stroke-linecap="round"><g transform="translate(463.1202511435321 197.1311977746284) rotate(0 -87.32283868413066 182.55563986512107)"><path d="M-0.96 -0.62 C-30.19 60.73, -146.72 304.33, -176.23 365.74 M3.71 -3.42 C-25.8 58.48, -147.62 306.09, -178.36 368.53" stroke="#000000" stroke-width="4" fill="none"></path></g></g><mask></mask><g stroke-linecap="round"><g transform="translate(384.3616813858554 125.94556741672818) rotate(0 -43.25800024213129 35.57004782607123)"><path d="M-1.44 -2.08 C-15.62 10.54, -73.1 61.31, -86.92 73.22 M2.97 2.96 C-11.47 15.1, -74.79 58.22, -89.48 69.73" stroke="#000000" stroke-width="4" fill="none"></path></g></g><mask></mask><g stroke-linecap="round"><g transform="translate(299.5447601083572 195.61660989467327) rotate(0 11.077585063818901 78.71475418125794)"><path d="M0.28 2.25 C4.7 28.06, 21.35 128.25, 25.17 153.66 M-3.01 1 C1.18 27.26, 17.69 130.35, 23.02 156.43" stroke="#000000" stroke-width="4" fill="none"></path></g></g><mask></mask><g stroke-linecap="round"><g transform="translate(385.8762692658106 357.6775130498929) rotate(0 -31.762660244865458 -0.8767653201082339)"><path d="M0.21 -0.63 C-10.07 -0.76, -51.28 1.75, -61.98 1.68 M-3.12 -3.44 C-13.66 -3.09, -53.2 -2.89, -63.74 -2.01" stroke="#000000" stroke-width="4" fill="none"></path></g></g><mask></mask><g stroke-linecap="round"><g transform="translate(324.53546012762 354.64833728998224) rotate(0 -11.024603419196751 11.695238554214143)"><path d="M0.34 2.69 C-3.5 6.05, -19.2 18.91, -22.39 21.71 M-2.92 1.68 C-6 4.2, -14.59 14.66, -17.46 18.21" stroke="#000000" stroke-width="4" fill="none"></path></g></g><mask></mask><g stroke-linecap="round"><g transform="translate(304.8458176882008 373.5806857894238) rotate(0 3.774647946535538 8.528912549075812)"><path d="M-0.82 -1.42 C0.93 2.02, 6.96 15.8, 8.37 18.48 M3.93 3.97 C5.63 6.75, 6.59 12, 6.98 14.05" stroke="#000000" stroke-width="4" fill="none"></path></g></g><mask></mask><g stroke-linecap="round"><g transform="translate(314.6906389079103 394.0276221688207) rotate(0 27.246468023910893 -1.8543089991803754)"><path d="M-2.21 0.18 C6.23 -0.44, 41.7 -3.33, 51.26 -3.89 M1.78 -2.19 C11.07 -2.32, 47.92 -0.72, 56.7 -0.32" stroke="#000000" stroke-width="4" fill="none"></path></g></g><mask></mask><g stroke-linecap="round"><g transform="translate(331.35110558741883 394.0276221688207) rotate(0 0.3758397602058494 26.937778951070754)"><path d="M-0.49 -0.09 C0.38 9.15, 3.88 43.84, 4.95 52.91 M-4.2 -2.61 C-3.71 7.34, 1.07 47.8, 2.52 56.48" stroke="#000000" stroke-width="4" fill="none"></path></g></g><mask></mask><g stroke-linecap="round"><g transform="translate(318.47710860779864 596.9823980828342) rotate(0 94.11220028992221 -185.61718560311738)"><path d="M-0.87 -0.45 C30.85 -62.49, 157.23 -309.24, 189.09 -370.78 M3.86 -3.16 C35.43 -65.04, 156.55 -307.58, 187.55 -368.23" stroke="#000000" stroke-width="4" fill="none"></path></g></g><mask></mask><g stroke-linecap="round" transform="translate(371.4876844062351 181.98531897507542) rotate(0 7.951586369765494 9.46617424972078)"><path d="M1.1 0.95 C1.1 0.95, 1.1 0.95, 1.1 0.95 M1.1 0.95 C1.1 0.95, 1.1 0.95, 1.1 0.95 M8.96 20.06 C10.75 13.75, 16.21 12.21, 16.72 8.13 M5.62 19.4 C9.83 15.65, 11.1 12.92, 16.76 6.76" stroke="#ffffff" stroke-width="2" fill="none"></path><path d="M11.23 2.51 C12.52 4.07, 16.58 7.51, 16.91 9.15 C17.24 10.78, 14.05 10.89, 13.2 12.33 C12.35 13.78, 12.95 16.8, 11.81 17.82 C10.67 18.85, 7.83 18.98, 6.35 18.47 C4.88 17.96, 3.94 16.44, 2.96 14.77 C1.98 13.09, 0.8 10.71, 0.47 8.43 C0.14 6.15, -0.11 2.75, 0.97 1.1 C2.06 -0.55, 4.39 -2.73, 6.97 -1.47 C9.55 -0.2, 15.84 5.53, 16.45 8.7 C17.07 11.86, 10.97 17.26, 10.65 17.52 M2.18 1.07 C3.35 -0.25, 5.13 3.01, 7.12 2.88 C9.12 2.75, 12.26 -0.4, 14.15 0.31 C16.04 1.01, 18 4.64, 18.45 7.09 C18.91 9.54, 18.12 13.16, 16.88 15.03 C15.63 16.9, 12.74 17.98, 10.96 18.31 C9.19 18.65, 7.78 17.19, 6.21 17.05 C4.65 16.92, 2.67 18.62, 1.57 17.48 C0.47 16.35, -0.44 12.37, -0.38 10.25 C-0.32 8.13, 1.31 5.98, 1.91 4.76 C2.51 3.54, 3.09 3.35, 3.22 2.92" stroke="#000000" stroke-width="4" fill="none"></path></g><g stroke-linecap="round"><g transform="translate(453.27542992382246 339.50245849042926) rotate(0 17.139463868337657 129.3102662206362)"><path d="M-1.26 0.79 C3.76 43.54, 24.45 213.55, 30.08 256.41 M3.25 -1.25 C9.19 41.97, 30.91 217.48, 35.54 259.87" stroke="#000000" stroke-width="4" fill="none"></path></g></g><mask></mask><g stroke-linecap="round"><g transform="translate(486.5963632828398 593.1959283829458) rotate(0 -37.592280969295416 41.7449368302249)"><path d="M-0.82 -0.36 C-13.7 13.18, -64.68 69.36, -77.27 83.83 M3.93 -3.02 C-9.25 12.04, -65.57 72.44, -79.12 86.51" stroke="#000000" stroke-width="4" fill="none"></path></g></g><mask></mask><g stroke-linecap="round"><g transform="translate(404.80861776525217 678.7701436004215) rotate(0 -43.29268528720223 -40.50722531845031)"><path d="M-1.72 -0.93 C-16.61 -13.97, -75.46 -66.84, -89.12 -80.09 M2.54 -3.9 C-11.56 -16.49, -69.8 -65.14, -84.23 -77.59" stroke="#000000" stroke-width="4" fill="none"></path></g></g><mask></mask><g stroke-linecap="round"><g transform="translate(401.7794420053415 591.6813405029905) rotate(0 -0.3699643732009008 -84.2786715193514)"><path d="M-1.26 1.92 C-1.47 -26.36, -1.49 -138.4, -1.67 -166.93 M3.25 0.5 C2.69 -27.3, -2.69 -142.74, -3.99 -170.48" stroke="#000000" stroke-width="4" fill="none"></path></g></g><mask></mask><g stroke-linecap="round"><g transform="translate(282.2477960221603 565.6301083452624) rotate(0 94.00244369659055 -184.82699737403334)"><path d="M0 0.64 C30.81 -61.5, 155.13 -308.29, 186.02 -370.3 M-3.45 -1.47 C28.16 -62.07, 159.07 -306.11, 191.45 -367.48" stroke="#000000" stroke-width="4" fill="none"></path></g></g><mask></mask><g stroke-linecap="round"><g transform="translate(320.56726125697 593.498810334215) rotate(0 92.76399833209291 -185.30260261460933)"><path d="M0.25 1.43 C31.47 -60.18, 157.38 -305.49, 188.58 -367.65 M-3.06 -0.25 C27.74 -62.9, 155.35 -310.42, 186.77 -372.04" stroke="#000000" stroke-width="4" fill="none"></path></g></g><mask></mask><g stroke-linecap="round"><g transform="translate(486.5963632828398 591.802493283498) rotate(0 -39.74876143899911 40.99618376416197)"><path d="M-1.7 -1.17 C-14.99 12.68, -66.64 68.94, -79.18 83.67 M2.57 -4.27 C-11.25 9.83, -68.59 71.79, -82.07 86.27" stroke="#000000" stroke-width="4" fill="none"></path></g></g><mask></mask><g stroke-linecap="round"><g transform="translate(306.2392527876484 377.76099108776657) rotate(0 4.28500319934534 9.060681966227662)"><path d="M-2.09 0.03 C-1.03 2.81, 3.91 14.32, 5.16 17.09 M1.98 -2.43 C4.06 0.77, 10.52 16.91, 10.66 20.55" stroke="#000000" stroke-width="4" fill="none"></path></g></g><mask></mask></svg>